<svg version="1.1" xmlns="http://www.w3.org/2000/svg" viewBox="0 0 1282.2439510590016 811.1149004046349" width="2564.487902118003" height="1622.2298008092698">
  <!-- svg-source:excalidraw -->
  
  <defs>
    <style class="style-fonts">
      @font-face {
        font-family: "Virgil";
        src: url("https://excalidraw.com/Virgil.woff2");
      }
      @font-face {
        font-family: "Cascadia";
        src: url("https://excalidraw.com/Cascadia.woff2");
      }
      @font-face {
        font-family: "Assistant";
        src: url("https://excalidraw.com/Assistant-Regular.woff2");
      }
    </style>
    
  </defs>
  <rect x="0" y="0" width="1282.2439510590016" height="811.1149004046349" fill="#ffffff"></rect><g stroke-linecap="round" transform="translate(183.14482971391328 117.93096046940741) rotate(0 153.1183862601821 322.2414937710438)"><path d="M32 0 C102.68 1.28, 169.34 -0.3, 274.24 0 C298.85 -1.73, 305.67 11.14, 306.24 32 C309 232.45, 309.33 429.59, 306.24 612.48 C305.28 636.32, 296.11 647.14, 274.24 644.48 C187.07 647.43, 94.96 644.9, 32 644.48 C7.81 641.24, 0.39 636.16, 0 612.48 C-1.66 469.94, -3.57 327.7, 0 32 C-3.32 13.87, 7.48 0.99, 32 0" stroke="none" stroke-width="0" fill="#a5d8ff"></path><path d="M32 0 C128.31 0.85, 224.17 1.2, 274.24 0 M274.24 0 C295.18 1.19, 308.16 11.6, 306.24 32 M306.24 32 C306.67 176.97, 307.73 322.94, 306.24 612.48 M306.24 612.48 C304.42 632.66, 294.85 642.77, 274.24 644.48 M274.24 644.48 C197.37 642.41, 123.12 641.51, 32 644.48 M32 644.48 C10.29 644.73, 1.62 632.02, 0 612.48 M0 612.48 C0.7 449.54, 0.42 288.22, 0 32 M0 32 C-0.79 11.52, 10.7 1.37, 32 0" stroke="#1971c2" stroke-width="4.5" fill="none" stroke-dasharray="8 12"></path></g><g transform="translate(236.6538409740955 122.93096046940741) rotate(0 99.609375 24)"><text x="99.609375" y="19.3125" font-family="Cascadia, Segoe UI Emoji" font-size="20px" fill="#1971c2" text-anchor="middle" style="white-space: pre;" direction="ltr" dominant-baseline="alphabetic">Napier Pool</text><text x="99.609375" y="43.3125" font-family="Cascadia, Segoe UI Emoji" font-size="20px" fill="#1971c2" text-anchor="middle" style="white-space: pre;" direction="ltr" dominant-baseline="alphabetic">(3LST-NapierPool)</text></g><g stroke-linecap="round" transform="translate(702.1876034766802 215.5116998248725) rotate(0 146.99015278759816 61.07406673609955)"><path d="M30.54 0 C86.09 2.1, 143.9 3.93, 263.44 0 C285.53 -0.77, 297.38 10.24, 293.98 30.54 C294.23 49.02, 296.13 62.46, 293.98 91.61 C294.92 114.31, 286.21 120.88, 263.44 122.15 C198.02 120.94, 130.25 121.11, 30.54 122.15 C11.35 125.39, -1.6 110.42, 0 91.61 C-2.17 78.42, 1.11 63.06, 0 30.54 C0.39 12.04, 13.55 1.44, 30.54 0" stroke="none" stroke-width="0" fill="#ffe0f6"></path><path d="M30.54 0 C111.35 -0.38, 188.06 -0.37, 263.44 0 M263.44 0 C282.21 -1.66, 293.71 11.16, 293.98 30.54 M293.98 30.54 C292.71 53.14, 293.73 80.86, 293.98 91.61 M293.98 91.61 C292.53 111.37, 283.05 124.12, 263.44 122.15 M263.44 122.15 C216.25 120.87, 165.97 121.7, 30.54 122.15 M30.54 122.15 C9.13 121.55, -1.75 110.66, 0 91.61 M0 91.61 C0.27 72.95, 0 50.54, 0 30.54 M0 30.54 C-0.82 10.79, 10.05 -1.47, 30.54 0" stroke="#e03131" stroke-width="2.5" fill="none" stroke-dasharray="8 10"></path></g><g stroke-linecap="round" transform="translate(700.5976316450348 354.5912231685204) rotate(0 146.99015278759816 61.07406673609955)"><path d="M30.54 0 C119.43 -1, 205.93 0.12, 263.44 0 C281.13 -0.01, 297.37 7.75, 293.98 30.54 C295.15 45.84, 292.69 70.14, 293.98 91.61 C294.94 113.24, 280.39 123.72, 263.44 122.15 C188.82 119.41, 108.42 122.77, 30.54 122.15 C9.4 120.77, -3.11 113.48, 0 91.61 C-2.02 76.19, 2.88 59.54, 0 30.54 C1.97 7.27, 7.16 -0.67, 30.54 0" stroke="none" stroke-width="0" fill="#ffe0f6"></path><path d="M30.54 0 C78.12 1.62, 128.62 -1.63, 263.44 0 M263.44 0 C282.83 -1.2, 295.42 11.43, 293.98 30.54 M293.98 30.54 C295.52 46.5, 293.23 57.39, 293.98 91.61 M293.98 91.61 C293.64 110.19, 285.02 120.75, 263.44 122.15 M263.44 122.15 C182.35 122.78, 100.75 123.79, 30.54 122.15 M30.54 122.15 C8.66 120.23, -0.83 112.71, 0 91.61 M0 91.61 C0.44 74.68, 1.68 59.47, 0 30.54 M0 30.54 C1.85 12.1, 9.9 -0.53, 30.54 0" stroke="#e03131" stroke-width="2.5" fill="none" stroke-dasharray="8 10"></path></g><g stroke-linecap="round" transform="translate(702.8153542347749 487.5529629723876) rotate(0 146.99015278759816 61.07406673609955)"><path d="M30.54 0 C84.51 -3.56, 140.45 -0.72, 263.44 0 C281.32 1.71, 290.38 11.08, 293.98 30.54 C295.69 49.77, 293.27 74.12, 293.98 91.61 C296.55 108.74, 281.48 122.67, 263.44 122.15 C173.22 121.81, 76.03 124.96, 30.54 122.15 C9.37 120.27, -2.08 109.97, 0 91.61 C-2.08 79.6, 1.11 62.63, 0 30.54 C2.22 9.97, 11.35 0.29, 30.54 0" stroke="none" stroke-width="0" fill="#ffe0f6"></path><path d="M30.54 0 C97.43 -1.73, 165.59 -1.95, 263.44 0 M263.44 0 C282.51 0.89, 292.23 9.23, 293.98 30.54 M293.98 30.54 C295.01 49.1, 292.96 63.84, 293.98 91.61 M293.98 91.61 C295.77 111.56, 281.95 122.83, 263.44 122.15 M263.44 122.15 C188.68 120.81, 111.1 121.54, 30.54 122.15 M30.54 122.15 C10.69 122.77, -0.57 111.24, 0 91.61 M0 91.61 C-0.15 77.92, 1.46 68.75, 0 30.54 M0 30.54 C-1.34 11.83, 10.58 1.04, 30.54 0" stroke="#e03131" stroke-width="2.5" fill="none" stroke-dasharray="8 10"></path></g><g stroke-linecap="round" transform="translate(10.7890625 10) rotate(0 31.9453125 17.755859375)"><path d="M8.88 0 C27.39 1.68, 47.61 1.86, 55.01 0 C60.16 3.4, 63.95 1.48, 63.89 8.88 C66.47 15.9, 64.37 19.42, 63.89 26.63 C66.23 34.96, 59.66 34.88, 55.01 35.51 C47.17 33.6, 37.19 36.77, 8.88 35.51 C6.2 33.91, -1.55 30.11, 0 26.63 C0.6 23.03, -0.44 19.61, 0 8.88 C1.86 6.33, 4.4 2.39, 8.88 0" stroke="none" stroke-width="0" fill="#ffe0f6"></path><path d="M8.88 0 C22.75 -1.45, 35.71 -2.04, 55.01 0 M55.01 0 C59.27 -0.27, 64.87 4.92, 63.89 8.88 M63.89 8.88 C62.27 12.86, 65.3 15.01, 63.89 26.63 M63.89 26.63 C63.29 31.8, 62.9 33.68, 55.01 35.51 M55.01 35.51 C40.24 35.48, 28.25 34.83, 8.88 35.51 M8.88 35.51 C2.36 33.76, -1.31 33.11, 0 26.63 M0 26.63 C1.14 21.8, -0.97 16.66, 0 8.88 M0 8.88 C0.61 2.83, 1.49 -1.19, 8.88 0" stroke="#e03131" stroke-width="2.5" fill="none" stroke-dasharray="8 10"></path></g><g stroke-linecap="round" transform="translate(10 60.9140625) rotate(0 31.9453125 17.755859375)"><path d="M8.88 0 C22.05 2.54, 33.87 -0.88, 55.01 0 C64.33 0.06, 62.41 2, 63.89 8.88 C66.11 15.69, 64.77 24.08, 63.89 26.63 C66.3 31.28, 60.29 32.66, 55.01 35.51 C43.32 38.6, 36.81 39.29, 8.88 35.51 C1.36 33.97, -2.44 29.23, 0 26.63 C0.37 19.57, 0.63 14.48, 0 8.88 C3.37 4.4, 5.35 -1.66, 8.88 0" stroke="none" stroke-width="0" fill="#a5d8ff"></path><path d="M8.88 0 C24.46 0.74, 40.45 -1.88, 55.01 0 M55.01 0 C60.66 0.98, 65.85 1.14, 63.89 8.88 M63.89 8.88 C64.1 14.7, 62.54 16.96, 63.89 26.63 M63.89 26.63 C63.14 34.52, 59.1 35.14, 55.01 35.51 M55.01 35.51 C40.2 34.29, 25.16 34.5, 8.88 35.51 M8.88 35.51 C1.21 34.2, 0.56 31.76, 0 26.63 M0 26.63 C-0.22 19.65, -0.73 15.01, 0 8.88 M0 8.88 C-0.13 1.49, 1.77 1.82, 8.88 0" stroke="#1971c2" stroke-width="2.5" fill="none" stroke-dasharray="8 10"></path></g><g transform="translate(503.9812742301409 79.72270936421864) rotate(0 123.046875 50.39999999999998)"><text x="123.046875" y="20.278125" font-family="Cascadia, Segoe UI Emoji" font-size="21px" fill="#f08c00" text-anchor="middle" style="white-space: pre;" direction="ltr" dominant-baseline="alphabetic">Tricrypto (BasePool)</text><text x="123.046875" y="45.478125" font-family="Cascadia, Segoe UI Emoji" font-size="21px" fill="#f08c00" text-anchor="middle" style="white-space: pre;" direction="ltr" dominant-baseline="alphabetic">coin0:rETH-PT</text><text x="123.046875" y="70.678125" font-family="Cascadia, Segoe UI Emoji" font-size="21px" fill="#f08c00" text-anchor="middle" style="white-space: pre;" direction="ltr" dominant-baseline="alphabetic">coin1: stETH-PT</text><text x="123.046875" y="95.878125" font-family="Cascadia, Segoe UI Emoji" font-size="21px" fill="#f08c00" text-anchor="middle" style="white-space: pre;" direction="ltr" dominant-baseline="alphabetic">coin2: sfrxETH-PT</text></g><g transform="translate(78.689453125 19.09765625) rotate(0 116.01562499999994 10.800000000000011)"><text x="116.015625" y="17.381249999999998" font-family="Cascadia, Segoe UI Emoji" font-size="18px" fill="#1e1e1e" text-anchor="middle" style="white-space: pre;" direction="ltr" dominant-baseline="alphabetic">:Curve Twocrypto pool </text></g><g transform="translate(82.677734375 69.7578125) rotate(0 58.00781249999994 10.800000000000011)"><text x="58.0078125" y="17.381249999999998" font-family="Cascadia, Segoe UI Emoji" font-size="18px" fill="#1e1e1e" text-anchor="middle" style="white-space: pre;" direction="ltr" dominant-baseline="alphabetic">:NapierPool</text></g><g transform="translate(1019.1189510590017 411.7139730791755) rotate(0 126.56249999999989 21.600000000000023)"><text x="126.5625" y="17.381249999999998" font-family="Cascadia, Segoe UI Emoji" font-size="18px" fill="#e03131" text-anchor="middle" style="white-space: pre;" direction="ltr" dominant-baseline="alphabetic">coin0: eETH-PT</text><text x="126.5625" y="38.981249999999996" font-family="Cascadia, Segoe UI Emoji" font-size="18px" fill="#e03131" text-anchor="middle" style="white-space: pre;" direction="ltr" dominant-baseline="alphabetic">coin1: BasePool LP token</text></g><g transform="translate(1002.8405852804216 294.24290864899353) rotate(0 131.8359375 21.600000000000023)"><text x="131.8359375" y="17.381249999999998" font-family="Cascadia, Segoe UI Emoji" font-size="18px" fill="#e03131" text-anchor="middle" style="white-space: pre;" direction="ltr" dominant-baseline="alphabetic">coin0: pufETH-PT</text><text x="131.8359375" y="38.981249999999996" font-family="Cascadia, Segoe UI Emoji" font-size="18px" fill="#e03131" text-anchor="middle" style="white-space: pre;" direction="ltr" dominant-baseline="alphabetic"> coin1: BasePool LP token</text></g><g transform="translate(133.93418884697314 779.514900404635) rotate(0 195.1171875 10.799999999999955)"><text x="195.1171875" y="17.381249999999998" font-family="Cascadia, Segoe UI Emoji" font-size="18px" fill="#1e1e1e" text-anchor="middle" style="white-space: pre;" direction="ltr" dominant-baseline="alphabetic">coin0: WETH, coin1: BasePool LP token</text></g><g stroke-linecap="round" transform="translate(718.7689394070525 227.3717881102557) rotate(0 58.15846986758743 47.139432608929496)"><path d="M23.57 0 C43.18 0.2, 59.08 0.89, 92.75 0 M23.57 0 C44.4 -0.5, 64.9 -0.19, 92.75 0 M92.75 0 C107.01 -1.94, 117.17 9.8, 116.32 23.57 M92.75 0 C108.86 -1.83, 117.34 8.74, 116.32 23.57 M116.32 23.57 C113.88 41.66, 116.84 57.18, 116.32 70.71 M116.32 23.57 C115.59 36.31, 116.86 47.5, 116.32 70.71 M116.32 70.71 C116.78 87.99, 108.1 94.34, 92.75 94.28 M116.32 70.71 C117.82 85.62, 108.66 92.77, 92.75 94.28 M92.75 94.28 C76.78 95.61, 59.39 95.66, 23.57 94.28 M92.75 94.28 C70.73 93.93, 48.43 93.31, 23.57 94.28 M23.57 94.28 C7.61 95.78, 0.01 86.54, 0 70.71 M23.57 94.28 C9.23 92.94, 1.38 87.33, 0 70.71 M0 70.71 C1.59 58.97, 0.6 45.07, 0 23.57 M0 70.71 C0.23 55.35, 0.76 39.81, 0 23.57 M0 23.57 C1.97 6.47, 8.26 -0.56, 23.57 0 M0 23.57 C-0.66 8.78, 8.47 -0.93, 23.57 0" stroke="#1e1e1e" stroke-width="2" fill="none"></path></g><g transform="translate(734.7399092746399 252.91122071918517) rotate(0 42.1875 21.600000000000023)"><text x="42.1875" y="17.381249999999998" font-family="Cascadia, Segoe UI Emoji" font-size="18px" fill="#1e1e1e" text-anchor="middle" style="white-space: pre;" direction="ltr" dominant-baseline="alphabetic">BasePool</text><text x="42.1875" y="38.981249999999996" font-family="Cascadia, Segoe UI Emoji" font-size="18px" fill="#1e1e1e" text-anchor="middle" style="white-space: pre;" direction="ltr" dominant-baseline="alphabetic">LP token</text></g><g stroke-linecap="round" transform="translate(719.4451386497263 369.2796334923953) rotate(0 58.15846986758743 47.13943260892961)"><path d="M23.57 0 C39.08 1.66, 50.38 0.38, 92.75 0 M23.57 0 C41.21 -1.41, 59.43 -1.48, 92.75 0 M92.75 0 C109.68 -1.39, 117.27 8.35, 116.32 23.57 M92.75 0 C109.68 -0.14, 115.75 6.89, 116.32 23.57 M116.32 23.57 C115.13 40.12, 114.99 55.28, 116.32 70.71 M116.32 23.57 C117.28 36.52, 117.35 51.83, 116.32 70.71 M116.32 70.71 C116.04 85.89, 110.01 93.32, 92.75 94.28 M116.32 70.71 C115.9 87.11, 107.22 93.86, 92.75 94.28 M92.75 94.28 C75.07 92.93, 53.66 95.77, 23.57 94.28 M92.75 94.28 C70.52 94.46, 49.73 94.04, 23.57 94.28 M23.57 94.28 C5.96 95.15, 0.62 87.5, 0 70.71 M23.57 94.28 C7.97 96.16, -2.2 85.82, 0 70.71 M0 70.71 C-1.63 56.72, -1.18 40.14, 0 23.57 M0 70.71 C0.99 59.97, 0.88 50.23, 0 23.57 M0 23.57 C-1.68 7.49, 6.42 0.55, 23.57 0 M0 23.57 C-0.96 5.73, 7.74 -0.9, 23.57 0" stroke="#1e1e1e" stroke-width="2" fill="none"></path></g><g transform="translate(735.4161085173138 394.8190661013248) rotate(0 42.1875 21.600000000000023)"><text x="42.1875" y="17.381249999999998" font-family="Cascadia, Segoe UI Emoji" font-size="18px" fill="#1e1e1e" text-anchor="middle" style="white-space: pre;" direction="ltr" dominant-baseline="alphabetic">BasePool</text><text x="42.1875" y="38.981249999999996" font-family="Cascadia, Segoe UI Emoji" font-size="18px" fill="#1e1e1e" text-anchor="middle" style="white-space: pre;" direction="ltr" dominant-baseline="alphabetic">LP token</text></g><g stroke-linecap="round" transform="translate(721.6628612394665 502.2413732962625) rotate(0 58.15846986758743 47.13943260892961)"><path d="M23.57 0 C45.96 1.52, 69.57 -1.29, 92.75 0 M23.57 0 C47.21 0.02, 70.41 0.94, 92.75 0 M92.75 0 C109.95 -0.83, 115.49 9.65, 116.32 23.57 M92.75 0 C107.99 -2.13, 117.1 8.42, 116.32 23.57 M116.32 23.57 C115.78 39.56, 116.64 58.83, 116.32 70.71 M116.32 23.57 C115.2 38.63, 116.3 54.53, 116.32 70.71 M116.32 70.71 C114.93 87.56, 110.22 92.94, 92.75 94.28 M116.32 70.71 C118.21 86.89, 109.66 92.79, 92.75 94.28 M92.75 94.28 C67.46 94.26, 45.69 92.71, 23.57 94.28 M92.75 94.28 C68.99 93.75, 44.14 95.14, 23.57 94.28 M23.57 94.28 C7.41 94.31, 1.95 87.85, 0 70.71 M23.57 94.28 C5.8 92.8, 0.33 88.66, 0 70.71 M0 70.71 C-1.27 56.37, 0.8 44.64, 0 23.57 M0 70.71 C-0.45 58.75, 0.48 46.67, 0 23.57 M0 23.57 C1.06 8.31, 7.23 1.23, 23.57 0 M0 23.57 C-0.13 8.6, 8.04 0.13, 23.57 0" stroke="#1e1e1e" stroke-width="2" fill="none"></path></g><g transform="translate(737.6338311070539 527.780805905192) rotate(0 42.1875 21.600000000000023)"><text x="42.1875" y="17.381249999999998" font-family="Cascadia, Segoe UI Emoji" font-size="18px" fill="#1e1e1e" text-anchor="middle" style="white-space: pre;" direction="ltr" dominant-baseline="alphabetic">BasePool</text><text x="42.1875" y="38.981249999999996" font-family="Cascadia, Segoe UI Emoji" font-size="18px" fill="#1e1e1e" text-anchor="middle" style="white-space: pre;" direction="ltr" dominant-baseline="alphabetic">LP token</text></g><g stroke-linecap="round" transform="translate(860.3187834119254 228.32906283501575) rotate(0 58.15846986758743 47.13943260892961)"><path d="M23.57 0 C41.56 -1.95, 57.79 -0.75, 92.75 0 M23.57 0 C50.78 -0.06, 77.63 -0.56, 92.75 0 M92.75 0 C106.95 1.49, 116.96 8.23, 116.32 23.57 M92.75 0 C110.2 -1.69, 117.91 7.77, 116.32 23.57 M116.32 23.57 C117.59 40.18, 116.54 56.61, 116.32 70.71 M116.32 23.57 C115.87 35.25, 115.71 47.43, 116.32 70.71 M116.32 70.71 C115.91 86.14, 108.16 93.25, 92.75 94.28 M116.32 70.71 C115.75 85.87, 107.34 96.18, 92.75 94.28 M92.75 94.28 C71.2 92.9, 51.17 93.55, 23.57 94.28 M92.75 94.28 C66.28 94.19, 41.07 94.73, 23.57 94.28 M23.57 94.28 C7.19 94.37, 1.35 84.6, 0 70.71 M23.57 94.28 C9.16 95.63, 0.03 84.25, 0 70.71 M0 70.71 C-1.87 53.27, 1.53 35.51, 0 23.57 M0 70.71 C-1.19 61.25, -0.95 49.47, 0 23.57 M0 23.57 C0.46 8.1, 9.39 1.98, 23.57 0 M0 23.57 C1.59 5.57, 8.23 -1.81, 23.57 0" stroke="#1e1e1e" stroke-width="2" fill="none"></path></g><g transform="translate(871.0163157795129 264.6684954439454) rotate(0 47.4609375 10.799999999999955)"><text x="47.4609375" y="17.381249999999998" font-family="Cascadia, Segoe UI Emoji" font-size="18px" fill="#1e1e1e" text-anchor="middle" style="white-space: pre;" direction="ltr" dominant-baseline="alphabetic">pufETH-PT</text></g><g stroke-linecap="round" transform="translate(858.72881158028 367.40858617866365) rotate(0 58.15846986758743 47.13943260892961)"><path d="M23.57 0 C38.84 -0.47, 55.99 1.12, 92.75 0 M23.57 0 C50.11 -0.33, 77.61 -0.14, 92.75 0 M92.75 0 C109.42 0.49, 117.38 7.74, 116.32 23.57 M92.75 0 C107.9 -0.97, 117.13 6.12, 116.32 23.57 M116.32 23.57 C115.15 33.29, 115.91 43.27, 116.32 70.71 M116.32 23.57 C117.65 34.98, 116.58 44.21, 116.32 70.71 M116.32 70.71 C117.87 85.46, 108.1 94.88, 92.75 94.28 M116.32 70.71 C115.08 86, 108.06 92.57, 92.75 94.28 M92.75 94.28 C72.04 95.3, 51.54 94, 23.57 94.28 M92.75 94.28 C78.23 95.17, 62.23 95.25, 23.57 94.28 M23.57 94.28 C8.48 95.36, 0.1 88.06, 0 70.71 M23.57 94.28 C5.65 93.68, 0.33 85.93, 0 70.71 M0 70.71 C-0.88 57.45, -1.42 44.63, 0 23.57 M0 70.71 C0.24 57.1, -1.15 44.92, 0 23.57 M0 23.57 C-1.44 8.4, 7.02 -1.85, 23.57 0 M0 23.57 C-0.11 6.96, 9.69 -0.36, 23.57 0" stroke="#1e1e1e" stroke-width="2" fill="none"></path></g><g transform="translate(874.6997814478674 392.9480187875931) rotate(0 42.1875 21.600000000000023)"><text x="42.1875" y="17.381249999999998" font-family="Cascadia, Segoe UI Emoji" font-size="18px" fill="#1e1e1e" text-anchor="middle" style="white-space: pre;" direction="ltr" dominant-baseline="alphabetic">Ether.fi</text><text x="42.1875" y="38.981249999999996" font-family="Cascadia, Segoe UI Emoji" font-size="18px" fill="#1e1e1e" text-anchor="middle" style="white-space: pre;" direction="ltr" dominant-baseline="alphabetic">ETH-PT</text></g><g stroke-linecap="round" transform="translate(860.9465341700201 500.37032598253086) rotate(0 58.15846986758743 47.13943260892961)"><path d="M23.57 0 C42.61 -1.81, 66.04 -2.27, 92.75 0 M23.57 0 C40.19 0.82, 59.25 -0.2, 92.75 0 M92.75 0 C107.63 1.79, 115.91 6, 116.32 23.57 M92.75 0 C109.25 0.56, 117.89 6.55, 116.32 23.57 M116.32 23.57 C116.85 40.54, 116.87 55.92, 116.32 70.71 M116.32 23.57 C115.97 35.75, 115.16 48.97, 116.32 70.71 M116.32 70.71 C118.08 85.09, 110.11 94.68, 92.75 94.28 M116.32 70.71 C117.52 84.94, 109.42 94.95, 92.75 94.28 M92.75 94.28 C74.14 92.96, 56.06 92.34, 23.57 94.28 M92.75 94.28 C69.73 94.48, 47.54 93.81, 23.57 94.28 M23.57 94.28 C9.81 95.71, -1.79 85.13, 0 70.71 M23.57 94.28 C8.19 96.52, -0.65 87.29, 0 70.71 M0 70.71 C1.23 52.52, -0.78 34.07, 0 23.57 M0 70.71 C0.55 58.53, 0.87 47.89, 0 23.57 M0 23.57 C-0.63 9.09, 7.74 0.65, 23.57 0 M0 23.57 C0.19 7.99, 5.74 1.69, 23.57 0" stroke="#1e1e1e" stroke-width="2" fill="none"></path></g><g transform="translate(876.9175040376075 536.7097585914605) rotate(0 42.1875 10.799999999999955)"><text x="42.1875" y="17.381249999999998" font-family="Cascadia, Segoe UI Emoji" font-size="18px" fill="#1e1e1e" text-anchor="middle" style="white-space: pre;" direction="ltr" dominant-baseline="alphabetic">swETH-PT</text></g><g stroke-linecap="round" transform="translate(530.3887304596029 205.7726167615083) rotate(0 58.15846986758743 85.2998211065293)"><path d="M29.08 0 C51.02 -2.06, 71.35 0.48, 87.24 0 M29.08 0 C40.68 0.51, 52.7 -0.05, 87.24 0 M87.24 0 C106.12 0.74, 116.82 10.32, 116.32 29.08 M87.24 0 C108.84 2.02, 118.39 8.34, 116.32 29.08 M116.32 29.08 C117.13 55.76, 114.39 86.84, 116.32 141.52 M116.32 29.08 C117.35 63.78, 116.66 101.05, 116.32 141.52 M116.32 141.52 C116.93 161.38, 106.44 168.95, 87.24 170.6 M116.32 141.52 C116.28 160.44, 104.99 168.72, 87.24 170.6 M87.24 170.6 C71.87 168.99, 58.15 171.52, 29.08 170.6 M87.24 170.6 C74.72 170.03, 59.67 171.6, 29.08 170.6 M29.08 170.6 C8.2 170.96, -1.96 159.81, 0 141.52 M29.08 170.6 C8.6 172.04, -1.29 159.37, 0 141.52 M0 141.52 C-1.38 119.08, -1.46 94.55, 0 29.08 M0 141.52 C-1.33 98.62, 0.03 56.84, 0 29.08 M0 29.08 C1.89 11.42, 10.06 -1.46, 29.08 0 M0 29.08 C1.12 9.47, 11.15 -0.58, 29.08 0" stroke="#1e1e1e" stroke-width="2" fill="none"></path></g><g transform="translate(535.8128253271904 280.2724378680375) rotate(0 52.734375 10.799999999999955)"><text x="52.734375" y="17.381249999999998" font-family="Cascadia, Segoe UI Emoji" font-size="18px" fill="#1e1e1e" text-anchor="middle" style="white-space: pre;" direction="ltr" dominant-baseline="alphabetic">sfrxETH-PT</text></g><g stroke-linecap="round" transform="translate(530.9375673744568 385.3006586991137) rotate(0 58.15846986758743 72.91712857931316)"><path d="M29.08 0 C47.64 1.61, 69.74 1.21, 87.24 0 M29.08 0 C43.94 -0.85, 59.81 -1.1, 87.24 0 M87.24 0 C106.61 -0.13, 117.51 7.81, 116.32 29.08 M87.24 0 C107.31 1.9, 117.76 9.88, 116.32 29.08 M116.32 29.08 C115.01 63.92, 114.56 99.64, 116.32 116.76 M116.32 29.08 C115.71 47.94, 114.77 69.26, 116.32 116.76 M116.32 116.76 C115.07 135.38, 106.73 145.32, 87.24 145.83 M116.32 116.76 C116.59 137.22, 105.39 146.55, 87.24 145.83 M87.24 145.83 C66.66 146.09, 49.53 147.13, 29.08 145.83 M87.24 145.83 C74.34 145.41, 60.92 145.01, 29.08 145.83 M29.08 145.83 C8.69 144.33, -1 137.31, 0 116.76 M29.08 145.83 C7.88 145.36, -0.68 134.39, 0 116.76 M0 116.76 C1.25 81.93, -1.46 49.33, 0 29.08 M0 116.76 C-0.79 85.42, -0.01 53.86, 0 29.08 M0 29.08 C0.34 9.63, 9.35 -1.16, 29.08 0 M0 29.08 C1.16 8.26, 7.96 0.57, 29.08 0" stroke="#1e1e1e" stroke-width="2" fill="none"></path></g><g transform="translate(546.9085372420442 447.4177872784269) rotate(0 42.1875 10.799999999999955)"><text x="42.1875" y="17.381249999999998" font-family="Cascadia, Segoe UI Emoji" font-size="18px" fill="#1e1e1e" text-anchor="middle" style="white-space: pre;" direction="ltr" dominant-baseline="alphabetic">stETH-PT</text></g><g stroke-linecap="round" transform="translate(532.2637536694552 539.9491286676887) rotate(0 58.15846986758743 77.15302393043919)"><path d="M29.08 0 C48.12 -1.98, 68.37 -1.76, 87.24 0 M29.08 0 C43.71 -0.12, 58.74 -0.81, 87.24 0 M87.24 0 C107.05 1.65, 116.29 8.84, 116.32 29.08 M87.24 0 C108.66 1.94, 116.01 9.5, 116.32 29.08 M116.32 29.08 C117.06 62.22, 116.77 96.74, 116.32 125.23 M116.32 29.08 C116.02 52.66, 117.38 73.9, 116.32 125.23 M116.32 125.23 C117.17 144.91, 108.31 155.22, 87.24 154.31 M116.32 125.23 C115.47 144.58, 107.16 152.04, 87.24 154.31 M87.24 154.31 C75.05 155.13, 59.84 156.49, 29.08 154.31 M87.24 154.31 C67.8 154, 48.76 154.83, 29.08 154.31 M29.08 154.31 C8.72 155.51, -0.74 145.97, 0 125.23 M29.08 154.31 C8.81 153.39, -0.98 143.33, 0 125.23 M0 125.23 C-0.05 101.43, -1.21 79.39, 0 29.08 M0 125.23 C0.14 102.94, -1.53 78.67, 0 29.08 M0 29.08 C-1.02 11.31, 8.43 -0.81, 29.08 0 M0 29.08 C2.09 11.29, 7.57 1.83, 29.08 0" stroke="#1e1e1e" stroke-width="2" fill="none"></path></g><g transform="translate(553.5081610370427 606.3021525981278) rotate(0 36.9140625 10.799999999999955)"><text x="36.9140625" y="17.381249999999998" font-family="Cascadia, Segoe UI Emoji" font-size="18px" fill="#1e1e1e" text-anchor="middle" style="white-space: pre;" direction="ltr" dominant-baseline="alphabetic">rETH-PT</text></g><g stroke-linecap="round" transform="translate(208.21700794744186 196.90516607296013) rotate(0 72.201264460875 253.61133322323087)"><path d="M32 0 C60.06 -0.62, 84.36 -0.63, 112.4 0 C134.68 -2.99, 146.18 12.1, 144.4 32 C144.56 206.11, 146.04 382.28, 144.4 475.22 C144.47 500.08, 132.07 510.14, 112.4 507.22 C93.43 506.09, 76.93 505.37, 32 507.22 C7.14 504.65, 1.14 494.15, 0 475.22 C4 300.65, 3.58 127, 0 32 C3.19 9.1, 12 -1.65, 32 0" stroke="none" stroke-width="0" fill="#e9ecef"></path><path d="M32 0 C51.89 -0.07, 72.26 0.5, 112.4 0 M32 0 C62.95 -0.9, 95.58 0.76, 112.4 0 M112.4 0 C134.58 -1.86, 143.57 11.77, 144.4 32 M112.4 0 C132.05 -0.27, 146.14 12.84, 144.4 32 M144.4 32 C144.91 128.42, 144.89 223.79, 144.4 475.22 M144.4 32 C145.7 175.34, 145.69 318.76, 144.4 475.22 M144.4 475.22 C143.63 494.72, 131.74 507.27, 112.4 507.22 M144.4 475.22 C143.88 497.07, 133.88 507.63, 112.4 507.22 M112.4 507.22 C84.41 505.71, 58.86 507.48, 32 507.22 M112.4 507.22 C81.68 508.19, 51.75 507.46, 32 507.22 M32 507.22 C10.05 506.81, 1.48 495.52, 0 475.22 M32 507.22 C11.57 508.65, -0.35 494.55, 0 475.22 M0 475.22 C-0.31 375.21, -1.02 276.76, 0 32 M0 475.22 C-1.89 347.5, -1.07 219.83, 0 32 M0 32 C-0.74 12.02, 10.94 -0.52, 32 0 M0 32 C2.1 11.06, 11.54 0.3, 32 0" stroke="#1e1e1e" stroke-width="2" fill="none"></path></g><g transform="translate(259.32452240831697 439.71649929619093) rotate(0 21.09375 10.799999999999955)"><text x="21.09375" y="17.381249999999998" font-family="Cascadia, Segoe UI Emoji" font-size="18px" fill="#1e1e1e" text-anchor="middle" style="white-space: pre;" direction="ltr" dominant-baseline="alphabetic">WETH</text></g><g transform="translate(1023.1181454909696 245.7163551207841) rotate(0 110.7421875 21.600000000000023)"><text x="110.7421875" y="17.381249999999998" font-family="Cascadia, Segoe UI Emoji" font-size="18px" fill="#e03131" text-anchor="middle" style="white-space: pre;" direction="ltr" dominant-baseline="alphabetic">Twocrypto </text><text x="110.7421875" y="38.981249999999996" font-family="Cascadia, Segoe UI Emoji" font-size="18px" fill="#e03131" text-anchor="middle" style="white-space: pre;" direction="ltr" dominant-baseline="alphabetic">(PufETH-PT&lt;&gt;BasePool)</text></g><g transform="translate(1023.7087998989499 361.00122082017356) rotate(0 100.1953125 21.600000000000023)"><text x="100.1953125" y="17.381249999999998" font-family="Cascadia, Segoe UI Emoji" font-size="18px" fill="#e03131" text-anchor="middle" style="white-space: pre;" direction="ltr" dominant-baseline="alphabetic">Twocrypto </text><text x="100.1953125" y="38.981249999999996" font-family="Cascadia, Segoe UI Emoji" font-size="18px" fill="#e03131" text-anchor="middle" style="white-space: pre;" direction="ltr" dominant-baseline="alphabetic">(eETH-PT&lt;&gt;BasePool)</text></g><g stroke-linecap="round"><g transform="translate(873.4175480117236 623.9429425073417) rotate(0 -0.6609665633432087 33.063699482584866)"><path d="M0.68 0.86 C0.6 11.99, -0.21 55.11, -0.49 66.08" stroke="#1e1e1e" stroke-width="4.5" fill="none" stroke-dasharray="1.5 10"></path></g></g><mask></mask><g stroke-linecap="round" transform="translate(366.5769685487229 193.63833845551176) rotate(0 240.96732833376257 257.0281570523405)"><path d="M32 0 C195.66 -1.83, 358.7 -1.68, 449.93 0 M449.93 0 C472.94 -0.57, 483.02 11.15, 481.93 32 M481.93 32 C483.27 143.09, 483.87 254.84, 481.93 482.06 M481.93 482.06 C482.39 503.86, 470.36 515.61, 449.93 514.06 M449.93 514.06 C339.16 513.74, 227.89 514.19, 32 514.06 M32 514.06 C9.5 513.06, 1.1 505.34, 0 482.06 M0 482.06 C-0.5 360.88, -1.06 240.48, 0 32 M0 32 C-1.67 10.36, 12.58 0.84, 32 0" stroke="#f08c00" stroke-width="4.5" fill="none" stroke-dasharray="8 12"></path></g></svg>